<?xml version="1.0" standalone="no"?>
<!DOCTYPE svg PUBLIC "-//W3C//DTD SVG 20010904//EN"
 "http://www.w3.org/TR/2001/REC-SVG-20010904/DTD/svg10.dtd">
<svg version="1.0" xmlns="http://www.w3.org/2000/svg"
 width="180.000000pt" height="180.000000pt" viewBox="0 0 180.000000 180.000000"
 preserveAspectRatio="xMidYMid meet">

<g transform="translate(0.000000,180.000000) scale(0.100000,-0.100000)"
fill="#000000" stroke="none">
<path d="M580 1510 c-11 -11 -22 -30 -25 -42 -3 -13 -5 -198 -3 -411 l3 -389
24 -19 c22 -18 43 -19 317 -19 281 0 295 1 314 20 19 19 20 33 20 353 l0 332
-98 98 -97 97 -218 0 c-203 0 -218 -1 -237 -20z m430 -88 c0 -96 9 -106 107
-112 l78 -5 0 -306 c0 -245 -3 -309 -14 -322 -12 -15 -45 -17 -290 -17 -202 0
-280 3 -289 12 -17 17 -17 789 0 806 9 9 69 12 210 12 l198 0 0 -68z m97 -14
c29 -29 53 -56 53 -60 0 -15 -88 -8 -104 8 -16 15 -23 104 -9 104 4 0 31 -23
60 -52z"/>
<path d="M930 1130 c-36 -68 -110 -256 -105 -269 5 -13 8 -13 20 0 13 13 125
264 125 281 0 16 -30 7 -40 -12z"/>
<path d="M735 1069 c-33 -27 -62 -54 -63 -59 -5 -15 11 -32 74 -81 43 -33 57
-40 67 -30 9 10 7 16 -10 31 -12 10 -37 30 -55 45 l-32 27 53 48 c33 28 51 51
47 58 -11 18 -16 15 -81 -39z"/>
<path d="M974 1106 c-6 -15 23 -45 79 -85 19 -14 18 -16 -34 -62 -42 -37 -51
-50 -42 -60 9 -9 26 0 77 41 36 30 66 57 66 61 0 8 -101 98 -126 112 -9 5 -16
3 -20 -7z"/>
<path d="M658 434 c-5 -4 -8 -17 -8 -28 0 -17 -6 -21 -32 -21 -26 0 -34 -5
-42 -27 -6 -18 -6 -38 0 -55 8 -24 15 -28 51 -28 41 -1 41 0 47 40 6 47 -6
130 -16 119z m-10 -101 c-2 -30 -8 -39 -25 -41 -14 -2 -23 3 -28 17 -10 34 3
61 31 61 23 0 25 -3 22 -37z"/>
<path d="M856 424 c-31 -30 -33 -107 -5 -141 13 -15 89 -18 89 -3 0 6 -15 10
-34 10 -41 0 -49 10 -49 61 0 48 17 69 55 69 17 0 27 4 23 10 -10 16 -62 12
-79 -6z"/>
<path d="M1108 434 c-9 -9 -11 -126 -2 -148 3 -9 15 -16 25 -16 22 0 25 15 4
23 -10 4 -15 26 -17 77 -2 40 -6 68 -10 64z"/>
<path d="M1178 434 c-9 -9 -11 -126 -2 -148 3 -9 15 -16 25 -16 22 0 25 15 4
23 -10 4 -15 26 -17 77 -2 40 -6 68 -10 64z"/>
<path d="M1372 358 l3 -83 33 -3 c44 -4 62 12 62 58 0 45 -20 65 -55 56 -23
-6 -25 -3 -25 24 0 16 -5 30 -10 30 -7 0 -10 -30 -8 -82z m73 -28 c0 -31 -3
-35 -27 -38 -26 -3 -28 -1 -28 32 0 34 11 46 40 43 10 -2 15 -14 15 -37z"/>
<path d="M340 374 c-17 -20 -17 -68 0 -88 13 -17 80 -22 80 -7 0 6 -15 11 -32
13 -30 3 -33 6 -33 38 0 32 3 35 33 38 18 2 30 8 27 13 -10 15 -61 10 -75 -7z"/>
<path d="M452 378 c-17 -17 -15 -83 2 -97 24 -20 69 -9 86 22 13 24 13 30 0
55 -17 30 -66 42 -88 20z m67 -26 c6 -10 7 -29 4 -41 -4 -17 -12 -21 -32 -19
-27 3 -39 32 -27 64 8 20 43 17 55 -4z"/>
<path d="M715 366 c-29 -44 -2 -96 51 -96 43 0 45 18 2 22 -46 4 -49 28 -4 28
63 0 61 62 -2 68 -24 2 -34 -3 -47 -22z m73 -13 c2 -9 -7 -13 -27 -13 -30 0
-39 9 -24 24 11 10 46 3 51 -11z"/>
<path d="M980 374 c-8 -8 -13 -28 -13 -44 0 -16 5 -36 13 -44 15 -19 61 -21
78 -4 16 16 16 80 0 96 -17 17 -63 15 -78 -4z m65 -44 c0 -31 -3 -35 -25 -35
-19 0 -26 6 -28 23 -5 36 5 54 30 50 19 -2 23 -9 23 -38z"/>
<path d="M1245 380 c-4 -6 8 -10 29 -10 25 0 36 -4 36 -15 0 -11 -11 -15 -36
-15 -34 0 -35 -1 -32 -32 3 -32 4 -33 48 -33 45 1 45 1 48 37 5 54 -12 78 -53
78 -18 0 -37 -4 -40 -10z m68 -57 c11 -10 -13 -33 -34 -33 -21 0 -26 26 -6 33
18 8 33 8 40 0z"/>
</g>
</svg>
