<?xml version="1.0" standalone="no"?>
<!DOCTYPE svg PUBLIC "-//W3C//DTD SVG 20010904//EN"
 "http://www.w3.org/TR/2001/REC-SVG-20010904/DTD/svg10.dtd">
<svg version="1.0" xmlns="http://www.w3.org/2000/svg"
 width="700.000000pt" height="700.000000pt" viewBox="0 0 700.000000 700.000000"
 preserveAspectRatio="xMidYMid meet">
<metadata>
Created by potrace 1.14, written by Peter Selinger 2001-2017
</metadata>
<g transform="translate(0.000000,700.000000) scale(0.100000,-0.100000)"
fill="#000000" stroke="none">
<path d="M2746 5263 c-1 -1 -78 -3 -171 -4 -116 -1 -183 -6 -211 -16 -51 -17
-125 -86 -156 -145 l-23 -43 0 -1545 0 -1545 23 -48 c31 -62 90 -121 149 -147
47 -21 52 -21 1123 -20 591 0 1090 3 1109 6 54 9 77 20 121 60 50 45 86 106
95 159 4 22 8 597 10 1277 l2 1237 -388 385 -389 386 -92 1 c-209 2 -1200 4
-1202 2z m1173 -150 c14 -4 16 -30 18 -196 3 -317 14 -367 95 -447 82 -82 115
-88 521 -90 l117 0 0 -1192 c0 -1165 -1 -1194 -20 -1225 -28 -47 -60 -63 -138
-69 -90 -7 -1760 -11 -1952 -4 -133 5 -148 7 -176 29 -18 12 -37 35 -44 50
-17 33 -26 2987 -10 3037 14 41 65 92 104 103 30 8 1453 12 1485 4z m458 -392
c102 -101 180 -186 175 -190 -10 -6 -34 -6 -257 -1 -192 5 -208 27 -210 295
-1 83 1 156 3 163 5 15 18 4 289 -267z"/>
<path d="M3675 3780 c-9 -10 -72 -148 -139 -306 -68 -159 -162 -377 -208 -484
-136 -315 -134 -307 -114 -329 23 -25 72 -45 91 -37 18 6 72 117 165 336 34
80 70 163 80 185 44 98 223 522 235 554 15 45 11 57 -27 77 -45 23 -65 24 -83
4z"/>
<path d="M3823 3629 c-17 -16 -33 -38 -36 -49 -7 -28 13 -47 244 -237 75 -62
141 -119 147 -126 10 -11 -5 -27 -73 -81 -47 -37 -91 -73 -98 -79 -6 -7 -41
-37 -77 -67 -99 -83 -140 -126 -140 -148 0 -11 14 -33 31 -50 31 -30 32 -31
63 -15 25 13 157 113 176 133 3 3 41 35 85 70 125 100 219 185 233 212 13 23
11 27 -20 59 -71 72 -433 371 -477 394 -27 13 -30 12 -58 -16z"/>
<path d="M3062 3606 c-79 -58 -355 -289 -409 -342 -24 -23 -43 -46 -43 -52 0
-22 53 -72 249 -235 279 -233 275 -231 320 -185 53 55 44 69 -124 209 -49 40
-92 76 -95 79 -3 4 -38 32 -77 64 -40 32 -73 62 -73 66 0 4 17 20 38 36 20 16
78 62 127 104 153 127 181 150 197 163 9 6 23 23 32 37 15 25 14 27 -15 63
-17 20 -39 37 -49 37 -10 0 -45 -20 -78 -44z"/>
</g>
</svg>
