<?xml version="1.0" standalone="no"?>
<!DOCTYPE svg PUBLIC "-//W3C//DTD SVG 20010904//EN"
 "http://www.w3.org/TR/2001/REC-SVG-20010904/DTD/svg10.dtd">
<svg version="1.0" xmlns="http://www.w3.org/2000/svg"
 width="700.000000pt" height="700.000000pt" viewBox="0 0 700.000000 700.000000"
 preserveAspectRatio="xMidYMid meet">
<metadata>
Created by potrace 1.14, written by Peter Selinger 2001-2017
</metadata>
<g transform="translate(0.000000,700.000000) scale(0.100000,-0.100000)"
fill="#000000" stroke="none">
<path d="M3445 6617 c-140 -92 -294 -231 -411 -372 -211 -253 -391 -591 -514
-967 -63 -190 -132 -480 -155 -648 -3 -25 -10 -70 -15 -100 -5 -30 -12 -80
-15 -110 -3 -30 -8 -77 -11 -105 -33 -267 -38 -958 -9 -1185 2 -19 7 -53 9
-75 9 -71 28 -219 30 -239 2 -15 -26 -43 -103 -104 -137 -108 -335 -309 -433
-439 -235 -313 -376 -672 -415 -1063 -10 -95 -10 -388 0 -460 4 -30 10 -75 13
-100 3 -25 15 -85 26 -135 11 -49 23 -102 26 -118 2 -15 8 -29 12 -32 5 -3 30
32 56 77 45 78 140 225 181 277 27 35 160 187 190 217 146 147 351 293 526
377 l107 52 -5 60 c-3 33 -7 76 -10 95 -3 19 -7 55 -10 80 -3 25 -7 56 -9 70
-8 60 -19 144 -30 245 -7 58 -5 56 54 -90 34 -82 67 -163 75 -180 7 -16 25
-61 39 -100 15 -38 33 -83 41 -100 7 -16 23 -53 34 -82 30 -77 96 -207 129
-255 82 -119 239 -219 422 -270 109 -30 307 -33 425 -7 181 40 326 123 426
242 76 90 91 124 329 712 44 110 78 184 76 165 -3 -19 -8 -62 -11 -95 -3 -33
-8 -71 -10 -85 -2 -14 -7 -50 -10 -80 -7 -62 -14 -123 -20 -160 -2 -14 -6 -52
-9 -84 -3 -33 -8 -61 -11 -64 -3 -3 54 -36 126 -73 366 -191 653 -469 872
-848 l64 -111 16 58 c23 80 44 186 52 257 4 33 9 69 12 80 9 38 11 390 2 455
-25 184 -33 225 -64 345 -114 441 -384 847 -765 1150 -41 33 -88 72 -104 86
l-28 26 15 104 c53 349 66 884 31 1279 -10 118 -15 167 -19 205 -3 22 -8 60
-11 85 -6 52 -7 62 -29 190 -97 571 -288 1063 -557 1437 -33 46 -65 88 -71 95
-7 7 -28 33 -48 58 -49 61 -131 145 -208 213 -61 54 -207 162 -234 173 -7 2
-35 -11 -62 -29z m153 -1457 c251 -52 415 -292 378 -555 -27 -189 -209 -368
-401 -394 -272 -37 -518 148 -552 415 -41 327 252 599 575 534z"/>
</g>
</svg>
